# xmcd CD database file
#
# Track frame offsets:
#	150
#	15267
#	28135
#	42877
#	55442
#	75985
#	91580
#	102365
#	115552
#	128545
#	143202
#	156327
#	178347
#	191580
#	207422
#
# Disc length: 3012 seconds
#
# Revision: 0
# Processed by: cddbd v1.4PL0 Copyright (c) Steve Scherf et al.
# Submitted via: CDex 1.40Release
#
DISCID=bd0bc20f
DTITLE=Aretha Franklin - Love Songs
DYEAR=2001
DGENRE=Blues
TTITLE0=I Wonder (Where Are You Tonight)
TTITLE1=Skylark
TTITLE2=Laughing On The Outside
TTITLE3=Without The One You Love
TTITLE4=This Bitter Earth
TTITLE5=Drinking Again
TTITLE6=Muddy Water
TTITLE7=Trouble In Mind
TTITLE8=Just For A Thrill
TTITLE9=Try A Little Tenderness
TTITLE10=I Wish I Didn't Love You So
TTITLE11=Only The Lonely
TTITLE12=But Beautiful
TTITLE13=What a Diff'rence A Day Makes
TTITLE14=If Ever I Would Leave You
EXTD=YEAR: 2001 ID3G: 0
EXTT0=
EXTT1=
EXTT2=
EXTT3=
EXTT4=
EXTT5=
EXTT6=
EXTT7=
EXTT8=
EXTT9=
EXTT10=
EXTT11=
EXTT12=
EXTT13=
EXTT14=
PLAYORDER=
